<?xml version="1.0" encoding="utf-8"?>
<!-- Generator: Adobe Illustrator 14.0.0, SVG Export Plug-In . SVG Version: 6.00 Build 43363)  -->
<!DOCTYPE svg PUBLIC "-//W3C//DTD SVG 1.1//EN" "http://www.w3.org/Graphics/SVG/1.1/DTD/svg11.dtd">
<svg version="1.1" id="Layer_1" xmlns="http://www.w3.org/2000/svg" xmlns:xlink="http://www.w3.org/1999/xlink" x="0px" y="0px"
	 width="374px" height="251px" viewBox="0 0 374 251" enable-background="new 0 0 374 251" xml:space="preserve">
<rect x="-1" y="1" fill="#252A2D" width="376" height="250"/>
<path fill="none" stroke="#999999" stroke-width="2" d="M118.62,134.378c6.622,2.218,9.051,7.646,9.169,13.785
	c0.164,8.515,5.28,10.854,6.458,11.444"/>
<g>
	<g>
		<path fill="#FFFFFF" d="M147.886,149.637V109.96h2.157v5.222c1.333-3.935,3.885-5.903,7.657-5.903
			c6.134,0,9.201,5.147,9.201,15.439c0,10.407-3.105,15.609-9.315,15.609c-4.229,0-6.743-2.138-7.543-6.414v15.724H147.886z
			 M150.043,124.718c0,9.12,2.421,13.68,7.266,13.68c4.805,0,7.208-4.561,7.208-13.68c0-9.006-2.271-13.509-6.812-13.509
			c-2.687,0-4.636,1.098-5.846,3.292C150.647,116.696,150.043,120.102,150.043,124.718z"/>
		<path fill="#FFFFFF" d="M171.215,111.89v-1.93h4.03v-8.798h2.157v8.798h4.938v1.93h-4.938v22.875c0,2.194,0.87,3.293,2.611,3.293
			c1.021,0,1.91-0.115,2.667-0.342v1.93c-1.06,0.228-2.082,0.342-3.065,0.342c-2.915,0-4.371-1.666-4.371-4.995V111.89H171.215z"/>
		<path fill="#FFFFFF" d="M187.165,104.908v-5.79h2.157v5.79H187.165z M187.165,139.646V109.96h2.157v29.687H187.165
			L187.165,139.646z"/>
		<path fill="#FFFFFF" d="M197.382,139.646V109.96h2.157v4.428c0.949-3.406,3.343-5.109,7.182-5.109c3.76,0,5.907,1.854,6.439,5.563
			h0.113c0.267-1.324,0.949-2.517,2.053-3.576c1.404-1.324,3.152-1.987,5.242-1.987c4.748,0,7.125,2.518,7.125,7.55v22.817h-2.157
			v-22.308c0-1.967-0.464-3.481-1.392-4.541c-0.928-1.059-2.166-1.589-3.718-1.589c-2.157,0-3.831,0.804-5.022,2.412
			c-1.192,1.608-1.788,3.718-1.788,6.329v19.696h-2.157V118.36c0-4.768-1.741-7.151-5.223-7.151c-2.194,0-3.897,0.87-5.108,2.61
			c-1.06,1.59-1.589,3.633-1.589,6.131v19.696H197.382z"/>
		<path fill="#FFFFFF" d="M235.753,104.908v-5.79h2.157v5.79H235.753z M235.753,139.646V109.96h2.157v29.687H235.753
			L235.753,139.646z"/>
		<path fill="#FFFFFF" d="M260.501,118.304h-2.157v-0.852c0-4.162-1.854-6.243-5.563-6.243c-3.822,0-5.733,1.836-5.733,5.506
			c0,2.801,1.478,4.749,4.429,5.847l4.541,1.702c3.594,1.362,5.393,3.993,5.393,7.89c0,2.423-0.823,4.391-2.469,5.904
			c-1.646,1.514-3.682,2.27-6.104,2.27c-5.865,0-8.798-3.121-8.798-9.365v-0.795h2.157v0.965c0,4.846,2.213,7.266,6.641,7.266
			c2.081,0,3.65-0.623,4.712-1.873c0.983-1.096,1.476-2.533,1.476-4.313c0-2.876-1.476-4.9-4.428-6.074l-4.371-1.759
			c-3.709-1.477-5.563-3.954-5.563-7.437c0-2.421,0.747-4.304,2.242-5.647c1.494-1.343,3.453-2.016,5.875-2.016
			c5.146,0,7.72,2.706,7.72,8.117V118.304z"/>
		<path fill="#FFFFFF" d="M264.871,111.89v-1.93h4.029v-8.798h2.158v8.798h4.938v1.93h-4.938v22.875
			c0,2.194,0.869,3.293,2.609,3.293c1.021,0,1.911-0.115,2.668-0.342v1.93c-1.061,0.228-2.081,0.342-3.064,0.342
			c-2.914,0-4.371-1.666-4.371-4.995V111.89H264.871z"/>
	</g>
</g>
<g>
	<path fill="#999999" d="M149.462,160.88c0.261-0.125,0.528-0.228,0.801-0.308c0.273-0.078,0.603-0.118,0.989-0.118
		c0.489,0,0.92,0.071,1.295,0.213c0.376,0.144,0.688,0.375,0.938,0.699c0.25,0.323,0.438,0.753,0.563,1.286
		c0.125,0.535,0.187,1.193,0.187,1.979c0,0.783-0.065,1.441-0.195,1.977c-0.131,0.535-0.327,0.963-0.588,1.287
		c-0.262,0.324-0.589,0.559-0.981,0.699c-0.391,0.141-0.855,0.213-1.389,0.213s-0.997-0.072-1.389-0.213
		c-0.393-0.142-0.719-0.375-0.98-0.699c-0.262-0.324-0.458-0.752-0.588-1.287c-0.131-0.533-0.197-1.192-0.197-1.977v-2.813
		c0-0.978,0.074-1.793,0.222-2.446c0.147-0.653,0.389-1.179,0.724-1.576s0.776-0.685,1.321-0.86c0.545-0.177,1.21-0.281,1.994-0.315
		l1.875-0.085l0.085,0.683c-0.296,0.125-0.619,0.244-0.972,0.357c-0.352,0.112-0.767,0.194-1.245,0.237
		c-0.432,0.047-0.801,0.133-1.108,0.256c-0.307,0.125-0.562,0.309-0.767,0.547c-0.204,0.238-0.355,0.543-0.452,0.912
		S149.462,160.348,149.462,160.88z M149.462,164.631c0,0.637,0.04,1.165,0.119,1.584c0.08,0.422,0.193,0.754,0.341,0.998
		c0.147,0.244,0.318,0.415,0.512,0.512c0.192,0.096,0.409,0.146,0.647,0.146c0.239,0,0.455-0.05,0.648-0.146
		c0.192-0.097,0.363-0.268,0.511-0.512c0.147-0.244,0.261-0.576,0.341-0.998c0.079-0.419,0.12-0.947,0.12-1.584
		c0-0.613-0.043-1.126-0.128-1.535c-0.085-0.408-0.21-0.732-0.376-0.972c-0.164-0.237-0.369-0.405-0.614-0.502
		c-0.244-0.097-0.525-0.146-0.844-0.146c-0.261,0-0.507,0.033-0.741,0.103c-0.233,0.067-0.412,0.147-0.537,0.237L149.462,164.631
		L149.462,164.631z"/>
	<path fill="#999999" d="M157.729,160.113v3.58h1.107c0.092-1.33,0.389-2.287,0.896-2.873c0.505-0.584,1.23-0.879,2.173-0.879
		c0.511,0,0.957,0.074,1.338,0.223c0.381,0.148,0.698,0.396,0.954,0.742c0.256,0.346,0.449,0.804,0.58,1.371
		c0.131,0.568,0.197,1.268,0.197,2.098c0,0.829-0.066,1.527-0.197,2.096c-0.13,0.569-0.324,1.026-0.58,1.372
		c-0.256,0.347-0.573,0.595-0.954,0.742c-0.381,0.147-0.827,0.222-1.338,0.222c-0.943,0-1.671-0.301-2.183-0.904
		c-0.511-0.602-0.807-1.606-0.887-3.016h-1.107v3.75h-1.534v-8.523H157.729L157.729,160.113z M161.905,167.869
		c0.215,0,0.417-0.055,0.604-0.162s0.35-0.296,0.486-0.563c0.136-0.268,0.245-0.625,0.324-1.074c0.08-0.448,0.12-1.016,0.12-1.695
		c0-0.682-0.04-1.248-0.12-1.695c-0.079-0.449-0.188-0.809-0.324-1.074c-0.136-0.268-0.298-0.455-0.486-0.563
		s-0.389-0.162-0.604-0.162c-0.216,0-0.418,0.055-0.605,0.162s-0.35,0.296-0.486,0.563c-0.136,0.267-0.245,0.625-0.324,1.074
		c-0.08,0.447-0.12,1.014-0.12,1.695s0.04,1.247,0.12,1.695c0.079,0.449,0.188,0.808,0.324,1.074
		c0.136,0.266,0.298,0.453,0.486,0.563S161.689,167.869,161.905,167.869z"/>
	<path fill="#999999" d="M168.297,160.625c0.215-0.217,0.483-0.384,0.801-0.504c0.317-0.118,0.647-0.18,0.988-0.18
		c0.443,0,0.841,0.072,1.193,0.215s0.647,0.384,0.886,0.724c0.238,0.341,0.42,0.796,0.545,1.364
		c0.125,0.566,0.187,1.277,0.187,2.131c0,0.852-0.063,1.563-0.187,2.13c-0.125,0.567-0.307,1.022-0.545,1.364
		c-0.239,0.34-0.535,0.583-0.886,0.725c-0.353,0.141-0.75,0.213-1.193,0.213c-0.341,0-0.645-0.041-0.913-0.119
		c-0.266-0.08-0.53-0.182-0.792-0.308v3.665h-1.535v-11.932h1.279l0.085,0.512H168.297z M168.383,167.441
		c0.125,0.093,0.301,0.172,0.527,0.238c0.228,0.069,0.45,0.104,0.665,0.104c0.273,0,0.52-0.05,0.742-0.146
		c0.222-0.097,0.409-0.273,0.563-0.529c0.153-0.256,0.272-0.604,0.357-1.047c0.085-0.443,0.128-1.008,0.128-1.688
		c0-0.683-0.043-1.241-0.128-1.681c-0.085-0.437-0.205-0.782-0.357-1.039c-0.154-0.256-0.341-0.436-0.563-0.536
		c-0.222-0.103-0.468-0.154-0.742-0.154c-0.215,0-0.437,0.035-0.665,0.104c-0.227,0.066-0.402,0.146-0.527,0.238V167.441z"/>
	<path fill="#999999" d="M180.74,164.375c0,0.829-0.067,1.527-0.204,2.096c-0.136,0.569-0.338,1.026-0.605,1.372
		c-0.268,0.347-0.596,0.595-0.989,0.742c-0.392,0.147-0.844,0.222-1.355,0.222c-0.511,0-0.962-0.074-1.354-0.222
		s-0.722-0.396-0.988-0.742c-0.268-0.346-0.469-0.803-0.605-1.372c-0.136-0.566-0.205-1.267-0.205-2.096
		c0-0.83,0.069-1.527,0.205-2.098c0.136-0.568,0.338-1.025,0.605-1.371c0.266-0.348,0.596-0.596,0.988-0.742
		s0.844-0.223,1.354-0.223c0.512,0,0.963,0.074,1.355,0.223c0.393,0.146,0.721,0.396,0.989,0.742
		c0.267,0.346,0.469,0.804,0.605,1.371C180.672,162.846,180.74,163.545,180.74,164.375z M179.207,164.375
		c0-0.682-0.046-1.248-0.136-1.695c-0.092-0.449-0.211-0.809-0.358-1.074c-0.148-0.268-0.318-0.455-0.512-0.563
		c-0.193-0.107-0.397-0.162-0.614-0.162c-0.215,0-0.42,0.055-0.614,0.162c-0.192,0.107-0.363,0.296-0.511,0.563
		s-0.268,0.625-0.358,1.074c-0.092,0.447-0.136,1.014-0.136,1.695s0.044,1.247,0.136,1.695c0.09,0.449,0.21,0.808,0.358,1.074
		c0.147,0.267,0.318,0.453,0.511,0.563c0.193,0.107,0.398,0.162,0.614,0.162c0.216,0,0.42-0.055,0.614-0.162
		c0.194-0.107,0.364-0.296,0.512-0.563c0.146-0.268,0.266-0.625,0.358-1.074C179.161,165.622,179.207,165.057,179.207,164.375z"/>
	<path fill="#999999" d="M188.496,156.704v11.933h-1.534v-11.933H188.496z"/>
	<path fill="#999999" d="M189.859,156.704h6.988v1.192h-2.728v10.738h-1.535v-10.738h-2.728v-1.192H189.859z"/>
	<path fill="#999999" d="M203.923,168.637h-1.534v-8.523h5.881v8.523h-1.533v-7.416h-2.813V168.637z"/>
	<path fill="#999999" d="M211.936,160.625c0.215-0.217,0.481-0.384,0.801-0.504c0.316-0.118,0.646-0.18,0.988-0.18
		c0.442,0,0.84,0.072,1.192,0.215s0.647,0.384,0.888,0.724c0.237,0.341,0.42,0.796,0.545,1.364c0.125,0.566,0.188,1.277,0.188,2.131
		c0,0.852-0.063,1.563-0.188,2.13s-0.308,1.022-0.545,1.364c-0.24,0.34-0.535,0.583-0.888,0.725
		c-0.353,0.141-0.75,0.213-1.192,0.213c-0.342,0-0.646-0.041-0.912-0.119c-0.268-0.08-0.531-0.182-0.793-0.308v3.665h-1.533v-11.932
		h1.277l0.086,0.512H211.936z M212.02,167.441c0.125,0.093,0.301,0.172,0.527,0.238c0.229,0.069,0.449,0.104,0.665,0.104
		c0.272,0,0.521-0.05,0.741-0.146c0.222-0.097,0.408-0.273,0.563-0.529c0.152-0.256,0.272-0.604,0.357-1.047
		c0.086-0.443,0.128-1.008,0.128-1.688c0-0.683-0.042-1.241-0.128-1.681c-0.085-0.437-0.205-0.782-0.357-1.039
		c-0.154-0.256-0.342-0.436-0.563-0.536c-0.221-0.103-0.469-0.154-0.741-0.154c-0.216,0-0.438,0.035-0.665,0.104
		c-0.227,0.066-0.402,0.146-0.527,0.238V167.441z"/>
	<path fill="#999999" d="M224.376,164.375c0,0.829-0.067,1.527-0.204,2.096c-0.136,0.569-0.338,1.026-0.605,1.372
		c-0.267,0.347-0.596,0.595-0.987,0.742s-0.845,0.222-1.354,0.222c-0.512,0-0.963-0.074-1.354-0.222s-0.722-0.396-0.988-0.742
		c-0.269-0.346-0.47-0.803-0.604-1.372c-0.137-0.566-0.205-1.267-0.205-2.096c0-0.83,0.068-1.527,0.205-2.098
		c0.136-0.567,0.338-1.025,0.604-1.371c0.267-0.348,0.597-0.596,0.988-0.742s0.844-0.223,1.354-0.223
		c0.512,0,0.963,0.074,1.354,0.223c0.394,0.146,0.722,0.396,0.987,0.742c0.269,0.346,0.471,0.804,0.605,1.371
		C224.309,162.848,224.376,163.545,224.376,164.375z M222.843,164.375c0-0.682-0.046-1.248-0.137-1.695
		c-0.091-0.449-0.211-0.809-0.356-1.074c-0.147-0.268-0.318-0.455-0.513-0.563s-0.397-0.162-0.614-0.162
		c-0.215,0-0.42,0.055-0.613,0.162c-0.192,0.107-0.362,0.296-0.512,0.563c-0.146,0.267-0.267,0.625-0.356,1.074
		c-0.093,0.447-0.138,1.014-0.138,1.695s0.045,1.247,0.138,1.695c0.091,0.449,0.21,0.808,0.356,1.074
		c0.148,0.267,0.318,0.453,0.512,0.563c0.195,0.109,0.398,0.162,0.613,0.162c0.217,0,0.422-0.055,0.614-0.162
		s0.364-0.296,0.513-0.563c0.146-0.268,0.267-0.625,0.356-1.074C222.797,165.622,222.843,165.057,222.843,164.375z"/>
	<path fill="#999999" d="M231.877,164.887h-4.432c0,0.557,0.045,1.02,0.137,1.389c0.09,0.369,0.229,0.666,0.417,0.888
		s0.433,0.381,0.733,0.478c0.301,0.096,0.666,0.146,1.1,0.146h1.704v0.683c-0.261,0.09-0.583,0.17-0.964,0.238
		c-0.381,0.066-0.74,0.102-1.082,0.102c-0.637,0-1.182-0.072-1.637-0.213c-0.455-0.142-0.826-0.385-1.115-0.725
		c-0.291-0.342-0.502-0.796-0.631-1.364c-0.131-0.567-0.196-1.278-0.196-2.13c0-0.854,0.063-1.563,0.188-2.131
		s0.313-1.023,0.563-1.364c0.249-0.34,0.563-0.581,0.938-0.724s0.808-0.215,1.295-0.215c0.489,0,0.922,0.072,1.297,0.215
		s0.688,0.384,0.938,0.724c0.25,0.341,0.438,0.796,0.563,1.364c0.125,0.566,0.188,1.277,0.188,2.131v0.51H231.877z M230.343,163.861
		c0-0.578-0.038-1.059-0.12-1.438c-0.078-0.381-0.184-0.685-0.313-0.911c-0.13-0.229-0.284-0.391-0.46-0.486
		c-0.178-0.096-0.361-0.146-0.555-0.146c-0.192,0-0.379,0.05-0.555,0.146c-0.176,0.097-0.33,0.259-0.46,0.486
		c-0.131,0.227-0.235,0.53-0.313,0.911c-0.082,0.382-0.121,0.86-0.121,1.438H230.343z"/>
	<path fill="#999999" d="M237.229,164.152c0.308,0.068,0.578,0.211,0.811,0.427s0.423,0.603,0.57,1.159l0.427,1.619
		c0.046,0.17,0.142,0.313,0.29,0.427c0.146,0.112,0.392,0.17,0.732,0.17v0.683c-0.08,0.033-0.17,0.063-0.272,0.086
		c-0.193,0.055-0.415,0.084-0.665,0.084c-0.479,0-0.85-0.123-1.116-0.365c-0.267-0.244-0.463-0.605-0.588-1.084l-0.426-1.619
		c-0.194-0.682-0.568-1.021-1.125-1.021h-0.579v3.92h-1.535v-8.521h1.535v3.494h0.579c0.181,0,0.352-0.073,0.511-0.223
		c0.159-0.146,0.307-0.414,0.443-0.801l0.427-1.193c0.181-0.5,0.392-0.865,0.63-1.1s0.598-0.35,1.074-0.35
		c0.102,0,0.21,0.009,0.322,0.025c0.113,0.018,0.218,0.036,0.308,0.061c0.112,0.033,0.217,0.062,0.308,0.084v0.683
		c-0.341,0-0.582,0.058-0.725,0.17c-0.143,0.115-0.241,0.257-0.299,0.427l-0.426,1.193c-0.183,0.512-0.363,0.872-0.547,1.082
		c-0.182,0.21-0.402,0.35-0.664,0.417V164.152L237.229,164.152z"/>
	<path fill="#999999" d="M246.363,160.113v1.107h-2.215v7.414h-1.533v-7.414h-2.217v-1.107H246.363z"/>
	<path fill="#999999" d="M253.438,164.375c0,0.829-0.066,1.527-0.203,2.096c-0.137,0.569-0.338,1.026-0.605,1.372
		c-0.268,0.347-0.596,0.595-0.988,0.742c-0.392,0.147-0.844,0.222-1.354,0.222s-0.963-0.074-1.354-0.222
		c-0.393-0.147-0.723-0.396-0.988-0.742c-0.268-0.346-0.469-0.803-0.605-1.372c-0.136-0.566-0.204-1.267-0.204-2.096
		c0-0.83,0.068-1.527,0.204-2.098c0.137-0.567,0.339-1.025,0.605-1.371c0.267-0.348,0.597-0.596,0.988-0.742
		c0.393-0.146,0.844-0.223,1.354-0.223c0.512,0,0.963,0.074,1.354,0.223c0.393,0.148,0.721,0.396,0.988,0.742
		s0.469,0.804,0.605,1.371C253.37,162.846,253.438,163.545,253.438,164.375z M251.904,164.375c0-0.682-0.045-1.248-0.137-1.695
		c-0.092-0.449-0.211-0.809-0.357-1.074c-0.146-0.268-0.318-0.455-0.512-0.563c-0.194-0.107-0.397-0.162-0.613-0.162
		c-0.217,0-0.422,0.055-0.614,0.162s-0.362,0.296-0.511,0.563c-0.146,0.267-0.268,0.625-0.357,1.074
		c-0.092,0.447-0.137,1.014-0.137,1.695s0.045,1.247,0.137,1.695c0.09,0.449,0.211,0.808,0.357,1.074
		c0.146,0.266,0.318,0.453,0.511,0.563c0.192,0.107,0.397,0.162,0.614,0.162c0.216,0,0.42-0.055,0.613-0.162
		c0.192-0.107,0.363-0.296,0.512-0.563c0.148-0.268,0.267-0.625,0.357-1.074C251.859,165.622,251.904,165.057,251.904,164.375z"/>
	<path fill="#999999" d="M255.314,160.284c0.432-0.125,0.857-0.214,1.277-0.265s0.846-0.078,1.278-0.078
		c0.487,0,0.92,0.039,1.296,0.111c0.374,0.074,0.688,0.202,0.938,0.383c0.25,0.184,0.438,0.428,0.563,0.733
		c0.125,0.308,0.188,0.692,0.188,1.159c0,0.271-0.035,0.509-0.104,0.708c-0.066,0.198-0.159,0.366-0.271,0.502
		c-0.113,0.137-0.242,0.248-0.383,0.333c-0.144,0.085-0.287,0.156-0.436,0.212v0.069c0.191,0.057,0.381,0.136,0.563,0.238
		s0.348,0.238,0.494,0.408s0.266,0.375,0.35,0.613s0.127,0.518,0.127,0.835c0,0.513-0.064,0.933-0.194,1.263
		c-0.132,0.329-0.327,0.592-0.588,0.783c-0.263,0.193-0.589,0.326-0.979,0.4c-0.393,0.074-0.854,0.111-1.391,0.111
		c-0.512,0-0.984-0.027-1.424-0.078c-0.438-0.051-0.871-0.14-1.303-0.264V160.284L255.314,160.284z M256.85,160.965v2.729h1.021
		c0.432,0,0.779-0.1,1.048-0.299c0.269-0.197,0.399-0.555,0.399-1.064c0-0.512-0.133-0.866-0.399-1.064
		c-0.269-0.199-0.616-0.3-1.048-0.3L256.85,160.965L256.85,160.965z M258.041,167.784c0.512,0,0.909-0.104,1.193-0.315
		c0.283-0.21,0.427-0.617,0.427-1.22s-0.144-1.008-0.427-1.218c-0.284-0.211-0.683-0.315-1.193-0.315h-1.191v3.068H258.041z"/>
</g>
<path fill="#8FFF00" d="M106.626,92.372l-5.15,34.015c-0.417,2.75,1.493,5.342,4.244,5.758l12.262,1.857l-5.823,5.717l1.795,0.272
	l7.587,1.147l1.797,0.272l-3.87-7.187l12.262,1.856c2.751,0.417,5.343-1.493,5.76-4.245l5.15-34.013
	c0.416-2.751-1.494-5.343-4.245-5.76l-26.01-3.938C109.634,87.711,107.042,89.62,106.626,92.372z M110.626,92.978
	c0.081-0.532,0.621-0.929,1.153-0.849l26.01,3.938c0.532,0.08,0.929,0.62,0.849,1.151l-5.086,33.596
	c-0.081,0.533-0.62,0.931-1.152,0.85l-26.011-3.938c-0.532-0.082-0.929-0.619-0.849-1.151L110.626,92.978z"/>
<g>
	<g>
		<defs>
			<path id="SVGID_1_" d="M106.626,92.372l-5.15,34.015c-0.417,2.75,1.493,5.342,4.244,5.758l12.262,1.857l-5.823,5.717l1.795,0.272
				l7.587,1.147l1.797,0.272l-3.87-7.187l12.262,1.856c2.751,0.417,5.343-1.493,5.76-4.245l5.15-34.013
				c0.416-2.751-1.494-5.343-4.245-5.76l-26.01-3.938C109.634,87.711,107.042,89.62,106.626,92.372z M110.626,92.978
				c0.081-0.532,0.621-0.929,1.153-0.849l26.01,3.938c0.532,0.08,0.929,0.62,0.849,1.151l-5.086,33.596
				c-0.081,0.533-0.62,0.931-1.152,0.85l-26.011-3.938c-0.532-0.082-0.929-0.619-0.849-1.151L110.626,92.978z"/>
		</defs>
		<clipPath id="SVGID_2_">
			<use xlink:href="#SVGID_1_"  overflow="visible"/>
		</clipPath>
		<g clip-path="url(#SVGID_2_)">
			<path fill="#578900" d="M125.515,142.291l-14.791-2.241l5.823-5.717l-10.457-1.584c-1.572-0.235-2.959-1.076-3.908-2.362
				c-0.949-1.287-1.339-2.863-1.101-4.434l5.15-34.015c0.438-2.895,2.976-5.076,5.904-5.076c0.297,0,0.598,0.022,0.893,0.067
				l26.01,3.938c3.255,0.493,5.502,3.542,5.01,6.798l-5.15,34.013c-0.438,2.895-2.977,5.078-5.905,5.078l0,0
				c-0.298,0-0.598-0.021-0.893-0.068l-10.457-1.582L125.515,142.291L125.515,142.291z M115.546,141.18l8.199,1.146l-4.036-7.528
				l-0.658,0.026l-4.521,4.438L115.546,141.18z M118.195,134l14.587,3.152c2.326,0.341,4.482-2.6,4.825-4.813l5.261-34.013
				c0.349-2.262-0.595-5.03-2.904-5.373l-26.575-3.938c-3.014-0.425-5.032,0.331-5.848,3.977l-5.261,34.014
				c-0.168,1.091,0.11,2.185,0.784,3.078s1.13,1.392,2.266,2.147l11.73,2.145h0.378L118.195,134z M132.851,132.591
				c-0.09,0-0.18-0.006-0.269-0.021l-25.338-3.836c-1.005-0.152-1.725-1.131-1.573-2.133l4.956-32.729
				c0.147-0.981,1.125-1.719,2.134-1.574l25.338,3.838c0.478,0.072,0.923,0.345,1.22,0.747c0.295,0.402,0.426,0.907,0.354,1.386
				l-4.957,32.729C134.577,131.906,133.775,132.591,132.851,132.591L132.851,132.591z M112.071,93.201
				c-0.045,0-0.108,0.057-0.113,0.084l-5.086,33.597c-0.004,0.033,0.051,0.108,0.084,0.114l26.01,3.938c0,0,0,0,0.001,0
				c0.043,0,0.108-0.055,0.113-0.084l5.086-33.596c0.006-0.047-0.038-0.107-0.083-0.113L112.071,93.201L112.071,93.201z"/>
		</g>
	</g>
</g>
<path fill="none" stroke="#999999" stroke-width="2" d="M118.62,341.378c6.622,2.218,9.051,7.646,9.169,13.785
	c0.164,8.515,5.28,10.854,6.458,11.444"/>
<g>
	<g>
		<path fill="#252A2D" d="M147.886,356.637V316.96h2.157v5.222c1.333-3.935,3.885-5.902,7.657-5.902
			c6.134,0,9.201,5.146,9.201,15.439c0,10.406-3.105,15.608-9.315,15.608c-4.229,0-6.743-2.138-7.543-6.414v15.724H147.886z
			 M150.043,331.719c0,9.119,2.421,13.68,7.266,13.68c4.805,0,7.208-4.561,7.208-13.68c0-9.007-2.271-13.51-6.812-13.51
			c-2.687,0-4.636,1.098-5.846,3.292C150.647,323.695,150.043,327.102,150.043,331.719z"/>
		<path fill="#252A2D" d="M171.215,318.891v-1.931h4.03v-8.798h2.157v8.798h4.938v1.931h-4.938v22.875
			c0,2.194,0.87,3.293,2.611,3.293c1.021,0,1.91-0.115,2.667-0.342v1.93c-1.06,0.228-2.082,0.342-3.065,0.342
			c-2.915,0-4.371-1.666-4.371-4.995v-23.103H171.215z"/>
		<path fill="#252A2D" d="M187.165,311.908v-5.79h2.157v5.79H187.165z M187.165,346.646V316.96h2.157v29.687H187.165
			L187.165,346.646z"/>
		<path fill="#252A2D" d="M197.382,346.646V316.96h2.157v4.429c0.949-3.406,3.343-5.109,7.182-5.109c3.76,0,5.907,1.854,6.439,5.563
			h0.113c0.267-1.324,0.949-2.517,2.053-3.576c1.404-1.324,3.152-1.986,5.242-1.986c4.748,0,7.125,2.518,7.125,7.55v22.817h-2.157
			v-22.308c0-1.967-0.464-3.481-1.392-4.541s-2.166-1.589-3.718-1.589c-2.157,0-3.831,0.805-5.022,2.412
			c-1.192,1.607-1.788,3.718-1.788,6.329v19.696h-2.157v-21.287c0-4.768-1.741-7.15-5.223-7.15c-2.194,0-3.897,0.87-5.108,2.609
			c-1.06,1.591-1.589,3.634-1.589,6.132v19.696H197.382z"/>
		<path fill="#252A2D" d="M235.753,311.908v-5.79h2.157v5.79H235.753z M235.753,346.646V316.96h2.157v29.687H235.753
			L235.753,346.646z"/>
		<path fill="#252A2D" d="M260.501,325.305h-2.157v-0.853c0-4.162-1.854-6.243-5.563-6.243c-3.822,0-5.733,1.836-5.733,5.506
			c0,2.801,1.478,4.749,4.429,5.848l4.541,1.701c3.594,1.362,5.393,3.993,5.393,7.891c0,2.423-0.823,4.391-2.469,5.904
			c-1.646,1.514-3.682,2.27-6.104,2.27c-5.865,0-8.798-3.121-8.798-9.365v-0.795h2.157v0.965c0,4.846,2.213,7.266,6.641,7.266
			c2.081,0,3.65-0.623,4.712-1.873c0.983-1.096,1.476-2.533,1.476-4.313c0-2.876-1.476-4.9-4.428-6.074l-4.371-1.759
			c-3.709-1.478-5.563-3.954-5.563-7.437c0-2.422,0.747-4.305,2.242-5.647c1.494-1.343,3.453-2.017,5.875-2.017
			c5.146,0,7.72,2.707,7.72,8.117V325.305z"/>
		<path fill="#252A2D" d="M264.871,318.891v-1.931h4.029v-8.798h2.158v8.798h4.938v1.931h-4.938v22.875
			c0,2.194,0.869,3.293,2.609,3.293c1.021,0,1.911-0.115,2.668-0.342v1.93c-1.061,0.228-2.081,0.342-3.064,0.342
			c-2.914,0-4.371-1.666-4.371-4.995v-23.103H264.871z"/>
	</g>
</g>
<g>
	<path fill="#252A2D" d="M149.462,367.88c0.261-0.125,0.528-0.228,0.801-0.308c0.273-0.078,0.603-0.118,0.989-0.118
		c0.489,0,0.92,0.071,1.295,0.213c0.376,0.144,0.688,0.375,0.938,0.699c0.25,0.323,0.438,0.753,0.563,1.286
		c0.125,0.535,0.187,1.193,0.187,1.979c0,0.783-0.065,1.441-0.195,1.977c-0.131,0.535-0.327,0.963-0.588,1.287
		c-0.262,0.324-0.589,0.559-0.981,0.699c-0.391,0.141-0.855,0.213-1.389,0.213s-0.997-0.072-1.389-0.213
		c-0.393-0.142-0.719-0.375-0.98-0.699c-0.262-0.324-0.458-0.752-0.588-1.287c-0.131-0.533-0.197-1.192-0.197-1.977v-2.813
		c0-0.978,0.074-1.793,0.222-2.446c0.147-0.653,0.389-1.179,0.724-1.576s0.776-0.685,1.321-0.86c0.545-0.177,1.21-0.281,1.994-0.315
		l1.875-0.085l0.085,0.683c-0.296,0.125-0.619,0.244-0.972,0.357c-0.352,0.112-0.767,0.194-1.245,0.237
		c-0.432,0.047-0.801,0.133-1.108,0.256c-0.307,0.125-0.562,0.309-0.767,0.547c-0.204,0.238-0.355,0.543-0.452,0.912
		S149.462,367.348,149.462,367.88z M149.462,371.631c0,0.637,0.04,1.165,0.119,1.584c0.08,0.422,0.193,0.754,0.341,0.998
		c0.147,0.244,0.318,0.415,0.512,0.512c0.192,0.096,0.409,0.146,0.647,0.146c0.239,0,0.455-0.05,0.648-0.146
		c0.192-0.097,0.363-0.268,0.511-0.512c0.147-0.244,0.261-0.576,0.341-0.998c0.079-0.419,0.12-0.947,0.12-1.584
		c0-0.613-0.043-1.126-0.128-1.535c-0.085-0.408-0.21-0.732-0.376-0.972c-0.164-0.237-0.369-0.405-0.614-0.502
		c-0.244-0.097-0.525-0.146-0.844-0.146c-0.261,0-0.507,0.033-0.741,0.103c-0.233,0.067-0.412,0.147-0.537,0.237L149.462,371.631
		L149.462,371.631z"/>
	<path fill="#252A2D" d="M157.729,367.113v3.58h1.107c0.092-1.33,0.389-2.287,0.896-2.873c0.505-0.584,1.23-0.879,2.173-0.879
		c0.511,0,0.957,0.074,1.338,0.223c0.381,0.148,0.698,0.396,0.954,0.742c0.256,0.346,0.449,0.804,0.58,1.371
		c0.131,0.568,0.197,1.268,0.197,2.098c0,0.829-0.066,1.527-0.197,2.096c-0.13,0.569-0.324,1.026-0.58,1.372
		c-0.256,0.347-0.573,0.595-0.954,0.742c-0.381,0.147-0.827,0.222-1.338,0.222c-0.943,0-1.671-0.301-2.183-0.904
		c-0.511-0.602-0.807-1.606-0.887-3.016h-1.107v3.75h-1.534v-8.523H157.729L157.729,367.113z M161.905,374.869
		c0.215,0,0.417-0.055,0.604-0.162s0.35-0.296,0.486-0.563c0.136-0.268,0.245-0.625,0.324-1.074c0.08-0.448,0.12-1.016,0.12-1.695
		c0-0.682-0.04-1.248-0.12-1.695c-0.079-0.449-0.188-0.809-0.324-1.074c-0.136-0.268-0.298-0.455-0.486-0.563
		s-0.389-0.162-0.604-0.162c-0.216,0-0.418,0.055-0.605,0.162s-0.35,0.296-0.486,0.563c-0.136,0.267-0.245,0.625-0.324,1.074
		c-0.08,0.447-0.12,1.014-0.12,1.695s0.04,1.247,0.12,1.695c0.079,0.449,0.188,0.808,0.324,1.074
		c0.136,0.266,0.298,0.453,0.486,0.563S161.689,374.869,161.905,374.869z"/>
	<path fill="#252A2D" d="M168.297,367.625c0.215-0.217,0.483-0.384,0.801-0.504c0.317-0.118,0.647-0.18,0.988-0.18
		c0.443,0,0.841,0.072,1.193,0.215s0.647,0.384,0.886,0.724c0.238,0.341,0.42,0.796,0.545,1.364
		c0.125,0.566,0.187,1.277,0.187,2.131c0,0.852-0.063,1.563-0.187,2.13c-0.125,0.567-0.307,1.022-0.545,1.364
		c-0.239,0.34-0.535,0.583-0.886,0.725c-0.353,0.141-0.75,0.213-1.193,0.213c-0.341,0-0.645-0.041-0.913-0.119
		c-0.266-0.08-0.53-0.182-0.792-0.308v3.665h-1.535v-11.932h1.279l0.085,0.512H168.297z M168.383,374.441
		c0.125,0.093,0.301,0.172,0.527,0.238c0.228,0.069,0.45,0.104,0.665,0.104c0.273,0,0.52-0.05,0.742-0.146
		c0.222-0.097,0.409-0.273,0.563-0.529c0.153-0.256,0.272-0.604,0.357-1.047c0.085-0.443,0.128-1.008,0.128-1.688
		c0-0.683-0.043-1.241-0.128-1.681c-0.085-0.437-0.205-0.782-0.357-1.039c-0.154-0.256-0.341-0.436-0.563-0.536
		c-0.222-0.103-0.468-0.154-0.742-0.154c-0.215,0-0.437,0.035-0.665,0.104c-0.227,0.066-0.402,0.146-0.527,0.238V374.441z"/>
	<path fill="#252A2D" d="M180.74,371.375c0,0.829-0.067,1.527-0.204,2.096c-0.136,0.569-0.338,1.026-0.605,1.372
		c-0.268,0.347-0.596,0.595-0.989,0.742c-0.392,0.147-0.844,0.222-1.355,0.222c-0.511,0-0.962-0.074-1.354-0.222
		s-0.722-0.396-0.988-0.742c-0.268-0.346-0.469-0.803-0.605-1.372c-0.136-0.566-0.205-1.267-0.205-2.096
		c0-0.83,0.069-1.527,0.205-2.098c0.136-0.568,0.338-1.025,0.605-1.371c0.266-0.348,0.596-0.596,0.988-0.742
		s0.844-0.223,1.354-0.223c0.512,0,0.963,0.074,1.355,0.223c0.393,0.146,0.721,0.396,0.989,0.742
		c0.267,0.346,0.469,0.804,0.605,1.371C180.672,369.846,180.74,370.545,180.74,371.375z M179.207,371.375
		c0-0.682-0.046-1.248-0.136-1.695c-0.092-0.449-0.211-0.809-0.358-1.074c-0.148-0.268-0.318-0.455-0.512-0.563
		c-0.193-0.107-0.397-0.162-0.614-0.162c-0.215,0-0.42,0.055-0.614,0.162c-0.192,0.107-0.363,0.296-0.511,0.563
		s-0.268,0.625-0.358,1.074c-0.092,0.447-0.136,1.014-0.136,1.695s0.044,1.247,0.136,1.695c0.09,0.449,0.21,0.808,0.358,1.074
		c0.147,0.267,0.318,0.453,0.511,0.563c0.193,0.107,0.398,0.162,0.614,0.162c0.216,0,0.42-0.055,0.614-0.162
		c0.194-0.107,0.364-0.296,0.512-0.563c0.146-0.268,0.266-0.625,0.358-1.074C179.161,372.622,179.207,372.057,179.207,371.375z"/>
	<path fill="#252A2D" d="M188.496,363.704v11.933h-1.534v-11.933H188.496z"/>
	<path fill="#252A2D" d="M189.859,363.704h6.988v1.192h-2.728v10.738h-1.535v-10.738h-2.728v-1.192H189.859z"/>
	<path fill="#252A2D" d="M203.923,375.637h-1.534v-8.523h5.881v8.523h-1.533v-7.416h-2.813V375.637z"/>
	<path fill="#252A2D" d="M211.936,367.625c0.215-0.217,0.481-0.384,0.801-0.504c0.316-0.118,0.646-0.18,0.988-0.18
		c0.442,0,0.84,0.072,1.192,0.215s0.647,0.384,0.888,0.724c0.237,0.341,0.42,0.796,0.545,1.364c0.125,0.566,0.188,1.277,0.188,2.131
		c0,0.852-0.063,1.563-0.188,2.13s-0.308,1.022-0.545,1.364c-0.24,0.34-0.535,0.583-0.888,0.725
		c-0.353,0.141-0.75,0.213-1.192,0.213c-0.342,0-0.646-0.041-0.912-0.119c-0.268-0.08-0.531-0.182-0.793-0.308v3.665h-1.533v-11.932
		h1.277l0.086,0.512H211.936z M212.02,374.441c0.125,0.093,0.301,0.172,0.527,0.238c0.229,0.069,0.449,0.104,0.665,0.104
		c0.272,0,0.521-0.05,0.741-0.146c0.222-0.097,0.408-0.273,0.563-0.529c0.152-0.256,0.272-0.604,0.357-1.047
		c0.086-0.443,0.128-1.008,0.128-1.688c0-0.683-0.042-1.241-0.128-1.681c-0.085-0.437-0.205-0.782-0.357-1.039
		c-0.154-0.256-0.342-0.436-0.563-0.536c-0.221-0.103-0.469-0.154-0.741-0.154c-0.216,0-0.438,0.035-0.665,0.104
		c-0.227,0.066-0.402,0.146-0.527,0.238V374.441z"/>
	<path fill="#252A2D" d="M224.376,371.375c0,0.829-0.067,1.527-0.204,2.096c-0.136,0.569-0.338,1.026-0.605,1.372
		c-0.267,0.347-0.596,0.595-0.987,0.742s-0.845,0.222-1.354,0.222c-0.512,0-0.963-0.074-1.354-0.222s-0.722-0.396-0.988-0.742
		c-0.269-0.346-0.47-0.803-0.604-1.372c-0.137-0.566-0.205-1.267-0.205-2.096c0-0.83,0.068-1.527,0.205-2.098
		c0.136-0.567,0.338-1.025,0.604-1.371c0.267-0.348,0.597-0.596,0.988-0.742s0.844-0.223,1.354-0.223
		c0.512,0,0.963,0.074,1.354,0.223c0.394,0.146,0.722,0.396,0.987,0.742c0.269,0.346,0.471,0.804,0.605,1.371
		C224.309,369.848,224.376,370.545,224.376,371.375z M222.843,371.375c0-0.682-0.046-1.248-0.137-1.695
		c-0.091-0.449-0.211-0.809-0.356-1.074c-0.147-0.268-0.318-0.455-0.513-0.563s-0.397-0.162-0.614-0.162
		c-0.215,0-0.42,0.055-0.613,0.162c-0.192,0.107-0.362,0.296-0.512,0.563c-0.146,0.267-0.267,0.625-0.356,1.074
		c-0.093,0.447-0.138,1.014-0.138,1.695s0.045,1.247,0.138,1.695c0.091,0.449,0.21,0.808,0.356,1.074
		c0.148,0.267,0.318,0.453,0.512,0.563c0.195,0.109,0.398,0.162,0.613,0.162c0.217,0,0.422-0.055,0.614-0.162
		s0.364-0.296,0.513-0.563c0.146-0.268,0.267-0.625,0.356-1.074C222.797,372.622,222.843,372.057,222.843,371.375z"/>
	<path fill="#252A2D" d="M231.877,371.887h-4.432c0,0.557,0.045,1.02,0.137,1.389c0.09,0.369,0.229,0.666,0.417,0.888
		s0.433,0.381,0.733,0.478c0.301,0.096,0.666,0.146,1.1,0.146h1.704v0.683c-0.261,0.09-0.583,0.17-0.964,0.238
		c-0.381,0.066-0.74,0.102-1.082,0.102c-0.637,0-1.182-0.072-1.637-0.213c-0.455-0.142-0.826-0.385-1.115-0.725
		c-0.291-0.342-0.502-0.796-0.631-1.364c-0.131-0.567-0.196-1.278-0.196-2.13c0-0.854,0.063-1.563,0.188-2.131
		s0.313-1.023,0.563-1.364c0.249-0.34,0.563-0.581,0.938-0.724s0.808-0.215,1.295-0.215c0.489,0,0.922,0.072,1.297,0.215
		s0.688,0.384,0.938,0.724c0.25,0.341,0.438,0.796,0.563,1.364c0.125,0.566,0.188,1.277,0.188,2.131v0.51H231.877z M230.343,370.861
		c0-0.578-0.038-1.059-0.12-1.438c-0.078-0.381-0.184-0.685-0.313-0.911c-0.13-0.229-0.284-0.391-0.46-0.486
		c-0.178-0.096-0.361-0.146-0.555-0.146c-0.192,0-0.379,0.05-0.555,0.146c-0.176,0.097-0.33,0.259-0.46,0.486
		c-0.131,0.227-0.235,0.53-0.313,0.911c-0.082,0.382-0.121,0.86-0.121,1.438H230.343z"/>
	<path fill="#252A2D" d="M237.229,371.152c0.308,0.068,0.578,0.211,0.811,0.427s0.423,0.603,0.57,1.159l0.427,1.619
		c0.046,0.17,0.142,0.313,0.29,0.427c0.146,0.112,0.392,0.17,0.732,0.17v0.683c-0.08,0.033-0.17,0.063-0.272,0.086
		c-0.193,0.055-0.415,0.084-0.665,0.084c-0.479,0-0.85-0.123-1.116-0.365c-0.267-0.244-0.463-0.605-0.588-1.084l-0.426-1.619
		c-0.194-0.682-0.568-1.021-1.125-1.021h-0.579v3.92h-1.535v-8.521h1.535v3.494h0.579c0.181,0,0.352-0.073,0.511-0.223
		c0.159-0.146,0.307-0.414,0.443-0.801l0.427-1.193c0.181-0.5,0.392-0.865,0.63-1.1s0.598-0.35,1.074-0.35
		c0.102,0,0.21,0.009,0.322,0.025c0.113,0.018,0.218,0.036,0.308,0.061c0.112,0.033,0.217,0.062,0.308,0.084v0.683
		c-0.341,0-0.582,0.058-0.725,0.17c-0.143,0.115-0.241,0.257-0.299,0.427l-0.426,1.193c-0.183,0.512-0.363,0.872-0.547,1.082
		c-0.182,0.21-0.402,0.35-0.664,0.417V371.152L237.229,371.152z"/>
	<path fill="#252A2D" d="M246.363,367.113v1.107h-2.215v7.414h-1.533v-7.414h-2.217v-1.107H246.363z"/>
	<path fill="#252A2D" d="M253.438,371.375c0,0.829-0.066,1.527-0.203,2.096c-0.137,0.569-0.338,1.026-0.605,1.372
		c-0.268,0.347-0.596,0.595-0.988,0.742c-0.392,0.147-0.844,0.222-1.354,0.222s-0.963-0.074-1.354-0.222
		c-0.393-0.147-0.723-0.396-0.988-0.742c-0.268-0.346-0.469-0.803-0.605-1.372c-0.136-0.566-0.204-1.267-0.204-2.096
		c0-0.83,0.068-1.527,0.204-2.098c0.137-0.567,0.339-1.025,0.605-1.371c0.267-0.348,0.597-0.596,0.988-0.742
		c0.393-0.146,0.844-0.223,1.354-0.223c0.512,0,0.963,0.074,1.354,0.223c0.393,0.148,0.721,0.396,0.988,0.742
		s0.469,0.804,0.605,1.371C253.37,369.846,253.438,370.545,253.438,371.375z M251.904,371.375c0-0.682-0.045-1.248-0.137-1.695
		c-0.092-0.449-0.211-0.809-0.357-1.074c-0.146-0.268-0.318-0.455-0.512-0.563c-0.194-0.107-0.397-0.162-0.613-0.162
		c-0.217,0-0.422,0.055-0.614,0.162s-0.362,0.296-0.511,0.563c-0.146,0.267-0.268,0.625-0.357,1.074
		c-0.092,0.447-0.137,1.014-0.137,1.695s0.045,1.247,0.137,1.695c0.09,0.449,0.211,0.808,0.357,1.074
		c0.146,0.266,0.318,0.453,0.511,0.563c0.192,0.107,0.397,0.162,0.614,0.162c0.216,0,0.42-0.055,0.613-0.162
		c0.192-0.107,0.363-0.296,0.512-0.563c0.148-0.268,0.267-0.625,0.357-1.074C251.859,372.622,251.904,372.057,251.904,371.375z"/>
	<path fill="#252A2D" d="M255.314,367.284c0.432-0.125,0.857-0.214,1.277-0.265s0.846-0.078,1.278-0.078
		c0.487,0,0.92,0.039,1.296,0.111c0.374,0.074,0.688,0.202,0.938,0.383c0.25,0.184,0.438,0.428,0.563,0.733
		c0.125,0.308,0.188,0.692,0.188,1.159c0,0.271-0.035,0.509-0.104,0.708c-0.066,0.198-0.159,0.366-0.271,0.502
		c-0.113,0.137-0.242,0.248-0.383,0.333c-0.144,0.085-0.287,0.156-0.436,0.212v0.069c0.191,0.057,0.381,0.136,0.563,0.238
		s0.348,0.238,0.494,0.408s0.266,0.375,0.35,0.613s0.127,0.518,0.127,0.835c0,0.513-0.064,0.933-0.194,1.263
		c-0.132,0.329-0.327,0.592-0.588,0.783c-0.263,0.193-0.589,0.326-0.979,0.4c-0.393,0.074-0.854,0.111-1.391,0.111
		c-0.512,0-0.984-0.027-1.424-0.078c-0.438-0.051-0.871-0.14-1.303-0.264V367.284L255.314,367.284z M256.85,367.965v2.729h1.021
		c0.432,0,0.779-0.1,1.048-0.299c0.269-0.197,0.399-0.555,0.399-1.064c0-0.512-0.133-0.866-0.399-1.064
		c-0.269-0.199-0.616-0.3-1.048-0.3L256.85,367.965L256.85,367.965z M258.041,374.784c0.512,0,0.909-0.104,1.193-0.315
		c0.283-0.21,0.427-0.617,0.427-1.22s-0.144-1.008-0.427-1.218c-0.284-0.211-0.683-0.315-1.193-0.315h-1.191v3.068H258.041z"/>
</g>
<path fill="#8FFF00" d="M106.626,299.372l-5.15,34.015c-0.417,2.75,1.493,5.342,4.244,5.758l12.262,1.857l-5.823,5.717l1.795,0.272
	l7.587,1.147l1.797,0.272l-3.87-7.187l12.262,1.856c2.751,0.417,5.343-1.493,5.76-4.245l5.15-34.014
	c0.416-2.75-1.494-5.342-4.245-5.76l-26.01-3.938C109.634,294.711,107.042,296.62,106.626,299.372z M110.626,299.979
	c0.081-0.533,0.621-0.93,1.153-0.85l26.01,3.938c0.532,0.08,0.929,0.621,0.849,1.152l-5.086,33.596
	c-0.081,0.533-0.62,0.931-1.152,0.85l-26.011-3.938c-0.532-0.082-0.929-0.619-0.849-1.151L110.626,299.979z"/>
<g>
	<g>
		<defs>
			<path id="SVGID_3_" d="M106.626,299.372l-5.15,34.015c-0.417,2.75,1.493,5.342,4.244,5.758l12.262,1.857l-5.823,5.717
				l1.795,0.272l7.587,1.147l1.797,0.272l-3.87-7.187l12.262,1.856c2.751,0.417,5.343-1.493,5.76-4.245l5.15-34.014
				c0.416-2.75-1.494-5.342-4.245-5.76l-26.01-3.938C109.634,294.711,107.042,296.62,106.626,299.372z M110.626,299.979
				c0.081-0.533,0.621-0.93,1.153-0.85l26.01,3.938c0.532,0.08,0.929,0.621,0.849,1.152l-5.086,33.596
				c-0.081,0.533-0.62,0.931-1.152,0.85l-26.011-3.938c-0.532-0.082-0.929-0.619-0.849-1.151L110.626,299.979z"/>
		</defs>
		<clipPath id="SVGID_4_">
			<use xlink:href="#SVGID_3_"  overflow="visible"/>
		</clipPath>
		<g clip-path="url(#SVGID_4_)">
			<path fill="#578900" d="M125.515,349.291l-14.791-2.241l5.823-5.717l-10.457-1.584c-1.572-0.235-2.959-1.076-3.908-2.362
				c-0.949-1.287-1.339-2.863-1.101-4.434l5.15-34.016c0.438-2.895,2.976-5.076,5.904-5.076c0.297,0,0.598,0.023,0.893,0.068
				l26.01,3.938c3.255,0.492,5.502,3.542,5.01,6.798l-5.15,34.013c-0.438,2.895-2.977,5.078-5.905,5.078l0,0
				c-0.298,0-0.598-0.021-0.893-0.068l-10.457-1.582L125.515,349.291L125.515,349.291z M115.546,348.18l8.199,1.146l-4.036-7.528
				l-0.658,0.026l-4.521,4.438L115.546,348.18z M118.195,341l14.587,3.152c2.326,0.341,4.482-2.6,4.825-4.813l5.261-34.013
				c0.349-2.263-0.595-5.03-2.904-5.373l-26.575-3.938c-3.014-0.425-5.032,0.332-5.848,3.978l-5.261,34.014
				c-0.168,1.091,0.11,2.185,0.784,3.078s1.13,1.392,2.266,2.147l11.73,2.145h0.378L118.195,341z M132.851,339.591
				c-0.09,0-0.18-0.006-0.269-0.021l-25.338-3.836c-1.005-0.152-1.725-1.131-1.573-2.133l4.956-32.729
				c0.147-0.981,1.125-1.72,2.134-1.574l25.338,3.839c0.478,0.071,0.923,0.344,1.22,0.746c0.295,0.402,0.426,0.907,0.354,1.387
				l-4.957,32.729C134.577,338.906,133.775,339.591,132.851,339.591L132.851,339.591z M112.071,300.201
				c-0.045,0-0.108,0.057-0.113,0.084l-5.086,33.597c-0.004,0.033,0.051,0.108,0.084,0.114l26.01,3.938c0,0,0,0,0.001,0
				c0.043,0,0.108-0.055,0.113-0.084l5.086-33.596c0.006-0.047-0.038-0.107-0.083-0.113L112.071,300.201L112.071,300.201z"/>
		</g>
	</g>
</g>
</svg>
