<svg version="1.0" xmlns="http://www.w3.org/2000/svg"
 width="40px" height="41px" viewBox="0 0 150 155"
 preserveAspectRatio="xMidYMid meet">
<g transform="translate(0,155) scale(0.1,-0.1)" stroke="none">
<path d="M404 1486 c-31 -31 -34 -39 -34 -92 0 -162 178 -345 322 -332 72 7
100 38 106 117 4 51 0 69 -25 123 -61 128 -179 218 -286 218 -42 0 -54 -5 -83
-34z"/>
<path d="M881 1364 c-30 -38 -35 -84 -17 -147 46 -159 212 -271 285 -193 92
98 -58 366 -204 366 -35 0 -48 -5 -64 -26z"/>
<path d="M320 1058 c-61 -32 -85 -76 -84 -154 2 -156 154 -308 309 -309 109 0
165 58 165 172 0 146 -141 295 -294 310 -40 3 -61 0 -96 -19z"/>
<path d="M845 1022 c-61 -20 -85 -59 -85 -137 0 -66 27 -137 74 -192 32 -37
118 -83 158 -83 137 0 158 196 36 335 -49 57 -135 92 -183 77z"/>
<path d="M1194 957 c-60 -52 -38 -192 45 -278 70 -72 133 -78 172 -16 50 79
-14 251 -113 303 -39 20 -73 17 -104 -9z"/>
<path d="M1151 608 c-139 -74 -49 -368 112 -368 31 0 46 7 73 34 32 32 34 38
34 104 0 57 -5 80 -27 122 -48 91 -133 139 -192 108z"/>
<path d="M740 578 c-173 -88 -74 -401 132 -416 46 -4 64 0 94 18 68 43 92 144
57 246 -21 63 -102 145 -159 162 -57 17 -73 15 -124 -10z"/>
<path d="M196 576 c-91 -34 -157 -144 -142 -240 39 -253 386 -363 510 -162 78
125 6 311 -148 385 -60 30 -164 38 -220 17z"/>
</g>
</svg>
