<?xml version="1.0" encoding="UTF-8" standalone="no"?>
<!-- Creator: CorelDRAW X6 -->

<svg
   xmlns:dc="http://purl.org/dc/elements/1.1/"
   xmlns:cc="http://creativecommons.org/ns#"
   xmlns:rdf="http://www.w3.org/1999/02/22-rdf-syntax-ns#"
   xmlns:svg="http://www.w3.org/2000/svg"
   xmlns="http://www.w3.org/2000/svg"
   xmlns:sodipodi="http://sodipodi.sourceforge.net/DTD/sodipodi-0.dtd"
   xmlns:inkscape="http://www.inkscape.org/namespaces/inkscape"
   xml:space="preserve"
   width="77.208656"
   height="99.637794"
   version="1.1"
   style="fill-rule:evenodd"
   viewBox="0 0 2178.9999 2812"
   id="svg2"
   inkscape:version="0.48.3.1 r9886"
   sodipodi:docname="logo-pack.svg"><metadata
   id="metadata41"><rdf:RDF><cc:Work
       rdf:about=""><dc:format>image/svg+xml</dc:format><dc:type
         rdf:resource="http://purl.org/dc/dcmitype/StillImage" /></cc:Work></rdf:RDF></metadata><sodipodi:namedview
   pagecolor="#ffffff"
   bordercolor="#666666"
   borderopacity="1"
   objecttolerance="10"
   gridtolerance="10"
   guidetolerance="10"
   inkscape:pageopacity="0"
   inkscape:pageshadow="2"
   inkscape:window-width="640"
   inkscape:window-height="480"
   id="namedview39"
   showgrid="false"
   fit-margin-top="0"
   fit-margin-left="0"
   fit-margin-right="0"
   fit-margin-bottom="0"
   inkscape:zoom="0.22425739"
   inkscape:cx="315.35432"
   inkscape:cy="-371.09054"
   inkscape:window-x="49"
   inkscape:window-y="24"
   inkscape:window-maximized="0"
   inkscape:current-layer="svg2" />
 <defs
   id="defs4">
  <style
   type="text/css"
   id="style6">
   
    .fil1 {fill:#FEFEFE}
    .fil0 {fill:#001CA8}
    .fil2 {fill:#001CA8;fill-rule:nonzero}
   
  </style>
 </defs>
 <g
   id="Layer_x0020_1"
   transform="translate(-1600.0001,-1565)">
  <metadata
   id="CorelCorpID_0Corel-Layer" />
  <rect
   class="fil0"
   x="1600"
   y="1565"
   width="2179"
   height="2179"
   rx="46"
   ry="46"
   id="rect10"
   style="fill:#001ca8" />
  <circle
   class="fil1"
   cx="2144"
   cy="3191"
   r="317"
   id="circle12"
   sodipodi:cx="2144"
   sodipodi:cy="3191"
   sodipodi:rx="317"
   sodipodi:ry="317"
   style="fill:#fefefe"
   d="m 2461,3191 c 0,175.0743 -141.9257,317 -317,317 -175.0743,0 -317,-141.9257 -317,-317 0,-175.0743 141.9257,-317 317,-317 175.0743,0 317,141.9257 317,317 z" />
  <path
   class="fil1"
   d="m 2107,2236 c -36,-103 57,-183 183,-191 126,-7 246,50 291,138 46,88 -5,183 -141,205 -136,23 -298,-50 -333,-153 z"
   id="path14"
   inkscape:connector-curvature="0"
   style="fill:#fefefe" />
  <path
   class="fil1"
   d="m 3089,3204 c -102,-30 -181,-186 -165,-325 16,-138 108,-194 198,-151 89,43 151,163 148,288 -3,125 -78,218 -180,188 z"
   id="path16"
   inkscape:connector-curvature="0"
   style="fill:#fefefe" />
  <path
   class="fil1"
   d="m 3520,2972 c -28,63 -108,49 -173,-44 -65,-94 -83,-218 -46,-269 37,-51 107,-19 164,62 57,81 83,188 55,252 z"
   id="path18"
   inkscape:connector-curvature="0"
   style="fill:#fefefe" />
  <path
   class="fil1"
   d="m 3542,2505 c 17,70 -10,114 -67,90 -57,-24 -119,-111 -133,-186 -14,-74 24,-104 78,-75 54,28 105,101 122,171 z"
   id="path20"
   inkscape:connector-curvature="0"
   style="fill:#fefefe" />
  <path
   class="fil1"
   d="m 3309,2078 c 61,57 92,127 68,159 -24,32 -100,10 -169,-54 -69,-64 -96,-140 -64,-165 32,-25 104,3 165,60 z"
   id="path22"
   inkscape:connector-curvature="0"
   style="fill:#fefefe" />
  <path
   class="fil1"
   d="m 2922,2150 c 99,32 193,125 225,223 32,98 -16,160 -121,146 -105,-15 -232,-139 -251,-247 -18,-108 47,-153 146,-122 z"
   id="path24"
   inkscape:connector-curvature="0"
   style="fill:#fefefe" />
  <path
   class="fil1"
   d="m 2946,1843 c 84,37 142,96 131,135 -12,39 -98,41 -193,-1 -95,-42 -151,-107 -129,-142 23,-35 107,-29 191,8 z"
   id="path26"
   inkscape:connector-curvature="0"
   style="fill:#fefefe" />
  <path
   class="fil1"
   d="m 2538,1827 c 106,28 169,107 159,161 -10,54 -106,72 -222,31 -116,-41 -182,-110 -159,-160 23,-50 117,-60 223,-32 z"
   id="path28"
   inkscape:connector-curvature="0"
   style="fill:#fefefe" />
  <circle
   class="fil1"
   transform="matrix(0.583536,-0.506578,0.55961,0.681616,2610.73,2715.04)"
   r="317"
   id="circle30"
   cx="0"
   cy="0"
   sodipodi:cx="0"
   sodipodi:cy="0"
   sodipodi:rx="317"
   sodipodi:ry="317"
   style="fill:#fefefe"
   d="M 317,0 C 317,175.07427 175.07427,317 0,317 -175.07427,317 -317,175.07427 -317,0 c 0,-175.07427 141.92573,-317 317,-317 175.07427,0 317,141.92573 317,317 z" />
  <path
   class="fil2"
   d="m 1821,4145 c 33,0 54,-21 62,-63 l 47,-244 c 1,-4 3,-8 5,-11 3,-3 7,-4 13,-4 l 93,0 c 7,0 11,2 11,6 1,4 1,7 0,10 l -48,248 c -5,26 -12,50 -22,70 -10,21 -23,38 -39,52 -16,14 -35,25 -57,32 -22,7 -47,11 -76,11 -28,0 -52,-4 -73,-12 -21,-8 -38,-19 -51,-33 -13,-14 -22,-32 -26,-52 -5,-20 -4,-43 1,-69 l 48,-248 c 1,-4 3,-8 5,-11 3,-3 7,-4 13,-4 l 93,0 c 6,0 10,2 11,6 1,4 1,7 0,10 l -48,244 c -4,22 -3,37 3,48 6,10 18,15 34,15 z"
   id="path32"
   inkscape:connector-curvature="0"
   style="fill:#001ca8;fill-rule:nonzero" />
  <path
   id="1"
   class="fil2"
   d="m 2305,3997 c 6,0 10,1 11,4 1,3 1,6 0,11 l -12,62 c -1,6 -2,10 -5,12 -2,3 -7,4 -13,4 l -208,0 c -9,0 -13,-5 -11,-16 l 12,-62 c 2,-10 8,-15 18,-15 l 208,0 z"
   inkscape:connector-curvature="0"
   style="fill:#001ca8;fill-rule:nonzero" />
  <path
   id="2"
   class="fil2"
   d="m 2577,3924 c 17,0 32,3 43,9 11,6 19,14 25,24 6,10 10,22 11,36 2,14 2,29 1,45 0,8 -1,16 -2,25 -1,8 -2,17 -3,25 -4,25 -10,48 -17,69 -8,20 -18,38 -31,52 -13,14 -29,25 -48,33 -19,8 -41,11 -67,11 -7,0 -16,-1 -28,-2 -11,-1 -21,-3 -30,-5 l -23,115 c 0,3 -2,6 -4,10 -2,4 -7,6 -13,6 l -89,0 c -6,0 -10,-1 -11,-4 -1,-3 -2,-7 -1,-11 l 81,-415 c 1,-4 3,-8 5,-11 3,-3 7,-4 13,-4 l 89,0 c 7,0 11,2 11,6 1,4 1,7 0,10 l -2,12 1,1 c 18,-12 34,-21 49,-26 14,-5 27,-7 38,-7 z m -65,110 c -7,0 -14,1 -22,3 -7,2 -14,5 -20,7 l -20,102 c 6,2 12,3 17,3 5,0 9,1 13,1 7,0 13,-1 18,-2 6,-1 10,-4 15,-8 4,-4 8,-10 11,-18 3,-8 6,-19 8,-32 l 3,-23 c 1,-12 0,-21 -4,-25 -3,-5 -9,-7 -18,-7 z"
   inkscape:connector-curvature="0"
   style="fill:#001ca8;fill-rule:nonzero" />
  <path
   id="3"
   class="fil2"
   d="m 2980,4230 c 0,3 -2,6 -4,10 -2,4 -7,6 -13,6 l -90,0 c -6,0 -9,-1 -10,-4 -1,-3 -1,-6 0,-10 l 3,-13 -1,-1 c -19,12 -36,21 -50,26 -14,5 -27,7 -39,7 -16,0 -29,-2 -40,-7 -11,-4 -19,-11 -25,-19 -6,-8 -11,-18 -13,-29 -3,-11 -4,-24 -4,-37 0,-10 1,-21 2,-32 1,-11 3,-22 5,-34 5,-24 10,-46 17,-66 7,-20 16,-37 26,-51 11,-14 24,-26 41,-33 16,-8 36,-12 60,-12 11,0 23,2 37,6 14,4 26,9 35,15 l 3,-10 c 2,-7 6,-11 14,-11 l 89,0 c 7,0 11,1 11,4 1,3 1,6 0,11 l -54,286 z m -112,-194 c -14,0 -24,4 -31,11 -7,7 -12,20 -16,39 -3,11 -4,21 -4,29 0,11 2,18 5,22 4,4 9,5 16,5 7,0 15,-1 22,-4 7,-3 14,-5 21,-8 l 17,-90 c -13,-3 -23,-5 -30,-5 z"
   inkscape:connector-curvature="0"
   style="fill:#001ca8;fill-rule:nonzero" />
  <path
   id="4"
   class="fil2"
   d="m 3320,4201 c 0,5 0,9 -1,12 0,3 -1,6 -3,9 -2,3 -4,5 -8,7 -4,2 -9,4 -15,7 -7,2 -14,4 -23,6 -8,2 -17,3 -26,5 -9,1 -18,2 -26,3 -9,1 -17,1 -24,1 -26,0 -48,-3 -64,-10 -17,-6 -30,-15 -39,-26 -10,-11 -16,-23 -20,-37 -4,-14 -6,-29 -6,-45 0,-8 1,-18 2,-29 1,-11 2,-20 4,-29 4,-21 9,-40 16,-59 7,-18 17,-35 31,-48 14,-14 31,-25 52,-33 21,-8 48,-12 80,-12 16,0 32,1 49,4 17,3 31,7 44,13 6,3 10,6 12,10 2,4 1,10 -2,18 l -15,49 c -1,4 -3,7 -4,10 -1,2 -3,4 -5,4 -2,1 -4,1 -8,1 -3,0 -8,-1 -13,-1 -12,-1 -22,-2 -30,-3 -8,-1 -16,-1 -25,-1 -36,0 -57,19 -64,57 -1,10 -2,18 -2,25 0,14 4,24 11,30 7,6 18,9 33,9 8,0 18,0 30,-1 11,-1 24,-2 38,-4 8,-1 14,-1 17,0 3,1 5,5 5,13 l -1,44 z"
   inkscape:connector-curvature="0"
   style="fill:#001ca8;fill-rule:nonzero" />
  <path
   id="5"
   class="fil2"
   d="m 3611,4055 74,170 c 3,6 3,11 0,15 -3,4 -8,5 -15,5 l -77,0 c -12,0 -21,-2 -25,-5 -4,-3 -8,-8 -9,-13 l -36,-89 -34,32 -11,60 c 0,3 -2,6 -4,10 -2,4 -7,6 -13,6 l -88,0 c -6,0 -10,-1 -11,-4 -1,-3 -2,-7 -1,-11 l 81,-418 c 1,-4 3,-8 5,-11 3,-3 7,-4 13,-4 l 88,0 c 7,0 11,2 11,6 1,4 1,7 0,10 l -37,197 62,-62 c 6,-5 11,-9 16,-12 5,-3 13,-4 24,-4 l 97,0 c 8,0 13,2 13,6 0,4 -3,8 -9,14 l -112,106 z"
   inkscape:connector-curvature="0"
   style="fill:#001ca8;fill-rule:nonzero" />
 </g>
</svg>